<?xml version="1.0" encoding="UTF-8"?><svg xmlns="http://www.w3.org/2000/svg" xmlns:xlink="http://www.w3.org/1999/xlink" width="187.5pt" zoomAndPan="magnify" viewBox="0 0 187.5 149.999998" height="149.999998pt" preserveAspectRatio="xMidYMid meet" version="1.2"><defs><clipPath xml:id="clip1" id="clip1"><path d="M 3.253906 2 L 183 2 L 183 149.800781 L 3.253906 149.800781 Z M 3.253906 2 "/></clipPath><clipPath xml:id="clip2" id="clip2"><path d="M 122 0.199219 L 168 0.199219 L 168 23 L 122 23 Z M 122 0.199219 "/></clipPath></defs><g xml:id="surface1" id="surface1"><g clip-rule="nonzero" clip-path="url(#clip1)"><path style=" stroke:none;fill-rule:nonzero;fill:rgb(0%,60.778809%,23.139954%);fill-opacity:1;" d="M 181.46875 86.394531 C 181.109375 80.871094 180.679688 75.269531 180.320312 69.746094 C 180.25 68.957031 180.175781 68.164062 180.175781 67.304688 C 178.671875 45.703125 177.167969 24.027344 175.445312 2.425781 C 165.984375 14.984375 144.410156 22.375 144.410156 22.375 C 143.550781 22.734375 142.691406 23.09375 141.832031 23.382812 C 131.9375 27.257812 121.472656 29.339844 111.007812 30.703125 C 89.074219 33.429688 67 32.710938 44.996094 34.503906 C 32.664062 35.582031 20.410156 37.449219 8.582031 41.035156 C 7.578125 41.324219 7.003906 41.898438 6.648438 42.542969 C 5.5 42.6875 4.496094 43.476562 4.28125 44.984375 C 3.421875 50.078125 3.636719 55.246094 3.707031 60.414062 C 3.78125 65.871094 3.851562 71.324219 3.921875 76.777344 C 4.066406 87.617188 4.28125 98.382812 4.425781 109.21875 C 4.496094 116.609375 4.640625 123.929688 4.710938 131.324219 C 4.78125 135.488281 4.496094 139.578125 4.566406 143.738281 C 4.566406 145.460938 3.996094 148.621094 5.285156 150.199219 C 13.167969 146.394531 21.914062 143.738281 28.222656 142.160156 C 30.875 141.445312 33.597656 140.871094 36.320312 140.296875 C 36.824219 140.222656 37.109375 140.152344 37.109375 140.152344 C 40.335938 139.578125 43.5625 139.074219 46.644531 138.714844 C 58.46875 137.136719 70.441406 136.777344 82.410156 136.203125 C 103.984375 135.269531 126.707031 134.984375 147.421875 127.808594 C 157.8125 124.21875 167.632812 118.765625 175.304688 110.796875 C 183.832031 101.898438 182.257812 97.664062 181.46875 86.394531 Z M 181.46875 86.394531 "/></g><path style=" stroke:none;fill-rule:nonzero;fill:rgb(100%,79.998779%,6.669617%);fill-opacity:1;" d="M 158.460938 70.605469 C 158.316406 70.460938 158.171875 70.320312 157.957031 70.246094 C 156.953125 69.457031 155.664062 68.957031 154.515625 68.382812 C 153.441406 67.878906 152.367188 67.304688 151.21875 66.800781 C 149.070312 65.726562 146.847656 64.722656 144.625 63.644531 C 140.253906 61.5625 135.882812 59.625 131.4375 57.617188 C 126.992188 55.679688 122.550781 53.738281 118.035156 51.875 C 113.519531 50.007812 109.074219 48.214844 104.488281 46.492188 C 99.972656 44.769531 95.382812 43.117188 90.796875 41.539062 C 90.292969 41.394531 89.863281 41.179688 89.363281 41.035156 C 88.933594 40.75 88.359375 40.75 87.855469 41.035156 C 87.640625 41.179688 87.425781 41.324219 87.285156 41.539062 C 83.84375 44.695312 80.402344 47.855469 76.960938 51.085938 C 73.308594 54.53125 69.652344 57.902344 65.996094 61.347656 C 62.339844 64.792969 58.683594 68.238281 54.957031 71.609375 C 51.300781 74.984375 47.574219 78.355469 43.847656 81.660156 C 40.191406 84.960938 36.394531 88.117188 32.738281 91.347656 C 31.589844 92.351562 29.871094 93.574219 32.09375 94.503906 C 34.171875 95.367188 36.25 96.300781 38.257812 97.304688 C 39.1875 97.734375 40.191406 98.164062 41.125 98.597656 C 41.195312 98.597656 41.339844 98.667969 41.410156 98.738281 C 41.480469 98.738281 41.554688 98.8125 41.695312 98.882812 C 41.984375 99.027344 42.199219 99.097656 42.484375 99.242188 C 51.515625 103.117188 97.820312 122.855469 97.820312 122.855469 C 99.96875 123.859375 100.617188 123.070312 102.40625 121.707031 C 109.71875 116.253906 116.886719 110.726562 123.769531 104.769531 C 127.636719 101.46875 131.4375 98.023438 135.164062 94.578125 C 138.890625 91.203125 142.546875 87.757812 146.203125 84.242188 C 149.785156 80.871094 153.296875 77.425781 156.8125 73.980469 C 157.242188 73.546875 157.671875 73.117188 158.101562 72.6875 C 158.816406 72.113281 159.03125 71.179688 158.460938 70.605469 Z M 158.460938 70.605469 "/><path style=" stroke:none;fill-rule:nonzero;fill:rgb(18.03894%,19.219971%,57.249451%);fill-opacity:1;" d="M 80.472656 75.128906 C 84.558594 74.554688 88.71875 74.339844 92.804688 74.480469 C 94.667969 74.554688 96.601562 74.695312 98.464844 74.984375 C 99.324219 75.128906 100.257812 75.269531 101.117188 75.414062 C 101.546875 75.488281 101.976562 75.558594 102.40625 75.703125 C 102.695312 75.773438 102.980469 75.84375 103.269531 75.917969 C 103.269531 75.917969 103.269531 75.917969 103.339844 75.917969 C 103.410156 75.917969 103.554688 75.988281 103.625 75.988281 C 110.4375 77.496094 116.957031 80.296875 122.550781 84.53125 C 122.621094 83.957031 122.765625 83.382812 122.765625 82.808594 C 123.480469 75.269531 120.757812 67.160156 114.519531 62.640625 C 113.949219 62.210938 113.375 61.851562 112.800781 61.492188 C 107.066406 57.902344 100.328125 55.820312 93.589844 56.035156 C 85.347656 56.324219 75.027344 60.558594 70.796875 68.09375 C 69.148438 71.109375 68.003906 74.480469 67.359375 78.070312 C 71.65625 76.777344 76.03125 75.773438 80.472656 75.128906 Z M 80.472656 75.128906 "/><path style=" stroke:none;fill-rule:nonzero;fill:rgb(18.03894%,19.219971%,57.249451%);fill-opacity:1;" d="M 112.730469 83.023438 C 112.800781 83.09375 112.800781 83.09375 112.730469 83.023438 C 112.65625 82.949219 112.65625 82.949219 112.585938 82.949219 C 112.585938 82.949219 112.65625 83.023438 112.730469 83.023438 Z M 112.730469 83.023438 "/><path style=" stroke:none;fill-rule:nonzero;fill:rgb(18.03894%,19.219971%,57.249451%);fill-opacity:1;" d="M 120.683594 88.476562 C 119.179688 87.183594 117.675781 86.035156 116.027344 84.960938 C 115.238281 84.457031 114.449219 83.957031 113.589844 83.453125 C 113.375 83.308594 113.160156 83.238281 112.945312 83.09375 C 112.945312 83.09375 112.800781 83.023438 112.730469 82.949219 C 112.65625 82.949219 112.585938 82.878906 112.585938 82.878906 C 112.15625 82.664062 111.796875 82.449219 111.367188 82.304688 C 109.789062 81.585938 108.214844 80.871094 106.566406 80.296875 C 104.988281 79.722656 103.339844 79.21875 101.621094 78.859375 C 101.546875 78.859375 101.546875 78.859375 101.476562 78.859375 C 101.332031 78.859375 101.261719 78.789062 101.117188 78.789062 C 100.902344 78.714844 100.6875 78.714844 100.542969 78.644531 C 100.113281 78.574219 99.753906 78.5 99.324219 78.429688 C 98.464844 78.285156 97.605469 78.140625 96.816406 78.070312 C 94.882812 77.78125 92.945312 77.640625 91.011719 77.566406 C 90.007812 77.496094 89.003906 77.496094 88 77.496094 C 87.5 77.496094 86.996094 77.496094 86.421875 77.496094 C 86.351562 77.496094 86.207031 77.496094 86.136719 77.496094 C 86.136719 77.496094 85.921875 77.496094 85.851562 77.496094 C 85.636719 77.496094 85.421875 77.496094 85.277344 77.496094 C 83.269531 77.566406 81.335938 77.78125 79.328125 78 C 75.3125 78.5 71.371094 79.289062 67.5 80.296875 C 67.359375 80.367188 67.140625 80.367188 67 80.296875 C 66.570312 84.816406 67.070312 89.339844 68.574219 93.429688 C 70.441406 98.523438 74.382812 103.046875 79.113281 105.628906 C 89.792969 111.515625 103.769531 107.351562 112.730469 100.175781 C 116.527344 97.160156 119.609375 93.140625 121.332031 88.691406 C 121.117188 88.765625 120.902344 88.621094 120.683594 88.476562 Z M 120.683594 88.476562 "/><path style=" stroke:none;fill-rule:nonzero;fill:rgb(100%,100%,100%);fill-opacity:1;" d="M 103.339844 75.917969 C 103.339844 75.917969 103.699219 75.988281 103.339844 75.917969 Z M 103.339844 75.917969 "/><path style=" stroke:none;fill-rule:nonzero;fill:rgb(100%,100%,100%);fill-opacity:1;" d="M 103.625 75.988281 C 103.554688 75.988281 103.410156 75.917969 103.339844 75.917969 C 103.269531 75.917969 103.269531 75.917969 103.269531 75.917969 C 103.269531 75.917969 103.339844 75.917969 103.339844 75.917969 C 103.625 75.988281 103.339844 75.917969 103.269531 75.917969 C 102.980469 75.84375 102.695312 75.773438 102.40625 75.703125 C 101.976562 75.628906 101.546875 75.488281 101.117188 75.414062 C 100.257812 75.269531 99.324219 75.128906 98.464844 74.984375 C 96.601562 74.695312 94.738281 74.554688 92.804688 74.480469 C 88.644531 74.339844 84.558594 74.554688 80.472656 75.128906 C 76.03125 75.773438 71.65625 76.777344 67.285156 78.070312 C 67.140625 78.859375 67.070312 79.648438 67 80.367188 C 67.140625 80.4375 67.285156 80.4375 67.5 80.367188 C 71.371094 79.363281 75.386719 78.574219 79.328125 78.070312 C 81.335938 77.78125 83.269531 77.640625 85.277344 77.566406 C 85.492188 77.566406 85.707031 77.566406 85.851562 77.566406 C 85.851562 77.566406 85.851562 77.566406 85.921875 77.566406 C 85.921875 77.566406 85.851562 77.566406 85.851562 77.566406 C 85.921875 77.566406 86.066406 77.566406 86.136719 77.566406 C 86.207031 77.566406 86.351562 77.566406 86.421875 77.566406 C 86.925781 77.566406 87.425781 77.566406 88 77.566406 C 89.003906 77.566406 90.007812 77.566406 91.011719 77.640625 C 92.945312 77.710938 94.882812 77.855469 96.816406 78.140625 C 97.675781 78.285156 98.539062 78.355469 99.324219 78.5 C 99.753906 78.574219 100.113281 78.644531 100.542969 78.714844 C 100.757812 78.789062 100.972656 78.789062 101.117188 78.859375 C 101.261719 78.859375 101.332031 78.929688 101.476562 78.929688 C 101.476562 78.929688 101.546875 78.929688 101.621094 78.929688 C 101.621094 78.929688 101.621094 78.929688 101.546875 78.929688 C 101.835938 79.003906 101.691406 79.003906 101.621094 78.929688 C 103.269531 79.289062 104.917969 79.792969 106.566406 80.367188 C 108.214844 80.941406 109.789062 81.585938 111.367188 82.375 C 111.796875 82.59375 112.15625 82.808594 112.585938 82.949219 C 112.585938 82.949219 112.65625 82.949219 112.65625 83.023438 C 112.800781 83.09375 112.730469 83.09375 112.65625 83.023438 C 112.730469 83.09375 112.871094 83.09375 112.871094 83.164062 C 113.085938 83.308594 113.300781 83.382812 113.519531 83.523438 C 114.378906 83.957031 115.167969 84.457031 115.953125 85.03125 C 117.601562 86.109375 119.179688 87.257812 120.613281 88.546875 C 120.757812 88.691406 121.042969 88.765625 121.257812 88.835938 C 121.761719 87.472656 122.191406 86.035156 122.476562 84.601562 C 117.03125 80.296875 110.4375 77.496094 103.625 75.988281 Z M 103.625 75.988281 "/><path style=" stroke:none;fill-rule:nonzero;fill:rgb(100%,100%,100%);fill-opacity:1;" d="M 112.730469 83.023438 C 112.65625 83.023438 112.585938 82.949219 112.585938 82.949219 C 112.585938 82.949219 112.65625 83.023438 112.730469 83.023438 Z M 112.730469 83.023438 "/><path style=" stroke:none;fill-rule:nonzero;fill:rgb(100%,100%,100%);fill-opacity:1;" d="M 101.621094 78.859375 C 101.621094 78.929688 101.621094 78.929688 101.621094 78.859375 C 101.761719 78.929688 101.90625 78.929688 101.621094 78.859375 Z M 101.621094 78.859375 "/><g clip-rule="nonzero" clip-path="url(#clip2)"><path style=" stroke:none;fill-rule:nonzero;fill:rgb(0%,60.778809%,23.139954%);fill-opacity:1;" d="M 124.054688 22.019531 C 131.796875 21.011719 139.25 19.003906 146.417969 15.917969 C 153.441406 12.902344 161.542969 8.957031 166.703125 3.140625 C 167.707031 2.066406 166.414062 0.199219 165.054688 0.988281 C 161.828125 2.925781 158.960938 5.367188 155.808594 7.375 C 152.652344 9.386719 149.355469 11.179688 145.914062 12.757812 C 138.820312 15.988281 131.292969 18.140625 123.625 19.289062 C 122.191406 19.578125 122.550781 22.160156 124.054688 22.019531 Z M 124.054688 22.019531 "/></g></g></svg>